<mxfile host="app.diagrams.net" modified="2022-03-13T10:11:49.235Z" agent="5.0 (Windows NT 10.0; Win64; x64) AppleWebKit/537.36 (KHTML, like Gecko) Chrome/99.0.4844.51 Safari/537.36" etag="1j4QoiO06vNpMoYM7Kjc" version="16.6.6" type="github">
  <diagram id="C5RBs43oDa-KdzZeNtuy" name="Page-1">
    <mxGraphModel dx="782" dy="436" grid="1" gridSize="10" guides="1" tooltips="1" connect="1" arrows="1" fold="1" page="1" pageScale="1" pageWidth="827" pageHeight="1169" math="0" shadow="0">
      <root>
        <mxCell id="WIyWlLk6GJQsqaUBKTNV-0" />
        <mxCell id="WIyWlLk6GJQsqaUBKTNV-1" parent="WIyWlLk6GJQsqaUBKTNV-0" />
        <mxCell id="mF7ugIjlvZ4SNHsndyJy-25" style="edgeStyle=orthogonalEdgeStyle;rounded=0;orthogonalLoop=1;jettySize=auto;html=1;exitX=0.5;exitY=1;exitDx=0;exitDy=0;entryX=0.5;entryY=0;entryDx=0;entryDy=0;" edge="1" parent="WIyWlLk6GJQsqaUBKTNV-1" source="mF7ugIjlvZ4SNHsndyJy-5" target="mF7ugIjlvZ4SNHsndyJy-10">
          <mxGeometry relative="1" as="geometry" />
        </mxCell>
        <mxCell id="mF7ugIjlvZ4SNHsndyJy-5" value="INICIO" style="rounded=1;whiteSpace=wrap;html=1;fontSize=12;glass=0;strokeWidth=1;shadow=0;fillColor=#f8cecc;strokeColor=#b85450;" vertex="1" parent="WIyWlLk6GJQsqaUBKTNV-1">
          <mxGeometry x="160" y="80" width="120" height="40" as="geometry" />
        </mxCell>
        <mxCell id="mF7ugIjlvZ4SNHsndyJy-26" style="edgeStyle=orthogonalEdgeStyle;rounded=0;orthogonalLoop=1;jettySize=auto;html=1;exitX=0.5;exitY=1;exitDx=0;exitDy=0;entryX=0.5;entryY=0;entryDx=0;entryDy=0;" edge="1" parent="WIyWlLk6GJQsqaUBKTNV-1" source="mF7ugIjlvZ4SNHsndyJy-10" target="mF7ugIjlvZ4SNHsndyJy-13">
          <mxGeometry relative="1" as="geometry" />
        </mxCell>
        <mxCell id="mF7ugIjlvZ4SNHsndyJy-10" value="Ejercicio 1:" style="shape=parallelogram;perimeter=parallelogramPerimeter;whiteSpace=wrap;html=1;fixedSize=1;fillColor=#e1d5e7;strokeColor=#9673a6;" vertex="1" parent="WIyWlLk6GJQsqaUBKTNV-1">
          <mxGeometry x="152.5" y="150" width="135" height="40" as="geometry" />
        </mxCell>
        <mxCell id="mF7ugIjlvZ4SNHsndyJy-27" style="edgeStyle=orthogonalEdgeStyle;rounded=0;orthogonalLoop=1;jettySize=auto;html=1;exitX=0.5;exitY=1;exitDx=0;exitDy=0;entryX=0.5;entryY=0;entryDx=0;entryDy=0;" edge="1" parent="WIyWlLk6GJQsqaUBKTNV-1" source="mF7ugIjlvZ4SNHsndyJy-13" target="mF7ugIjlvZ4SNHsndyJy-14">
          <mxGeometry relative="1" as="geometry" />
        </mxCell>
        <mxCell id="mF7ugIjlvZ4SNHsndyJy-13" value="Apartado 1" style="shape=parallelogram;perimeter=parallelogramPerimeter;whiteSpace=wrap;html=1;fixedSize=1;fillColor=#e1d5e7;strokeColor=#9673a6;" vertex="1" parent="WIyWlLk6GJQsqaUBKTNV-1">
          <mxGeometry x="152.5" y="220" width="135" height="40" as="geometry" />
        </mxCell>
        <mxCell id="mF7ugIjlvZ4SNHsndyJy-28" style="edgeStyle=orthogonalEdgeStyle;rounded=0;orthogonalLoop=1;jettySize=auto;html=1;exitX=0.5;exitY=1;exitDx=0;exitDy=0;entryX=0.5;entryY=0;entryDx=0;entryDy=0;" edge="1" parent="WIyWlLk6GJQsqaUBKTNV-1" source="mF7ugIjlvZ4SNHsndyJy-14" target="mF7ugIjlvZ4SNHsndyJy-16">
          <mxGeometry relative="1" as="geometry" />
        </mxCell>
        <mxCell id="mF7ugIjlvZ4SNHsndyJy-14" value="tabla" style="shape=parallelogram;perimeter=parallelogramPerimeter;whiteSpace=wrap;html=1;fixedSize=1;fillColor=#e1d5e7;strokeColor=#9673a6;" vertex="1" parent="WIyWlLk6GJQsqaUBKTNV-1">
          <mxGeometry x="152.5" y="290" width="135" height="40" as="geometry" />
        </mxCell>
        <mxCell id="mF7ugIjlvZ4SNHsndyJy-29" style="edgeStyle=orthogonalEdgeStyle;rounded=0;orthogonalLoop=1;jettySize=auto;html=1;exitX=0.5;exitY=1;exitDx=0;exitDy=0;entryX=0.5;entryY=0;entryDx=0;entryDy=0;" edge="1" parent="WIyWlLk6GJQsqaUBKTNV-1" source="mF7ugIjlvZ4SNHsndyJy-16" target="mF7ugIjlvZ4SNHsndyJy-17">
          <mxGeometry relative="1" as="geometry" />
        </mxCell>
        <mxCell id="mF7ugIjlvZ4SNHsndyJy-16" value="resultado.ordenar()" style="rounded=1;whiteSpace=wrap;html=1;fontSize=12;glass=0;strokeWidth=1;shadow=0;fillColor=#fff2cc;strokeColor=#d6b656;" vertex="1" parent="WIyWlLk6GJQsqaUBKTNV-1">
          <mxGeometry x="160" y="360" width="120" height="40" as="geometry" />
        </mxCell>
        <mxCell id="mF7ugIjlvZ4SNHsndyJy-30" style="edgeStyle=orthogonalEdgeStyle;rounded=0;orthogonalLoop=1;jettySize=auto;html=1;exitX=0.5;exitY=1;exitDx=0;exitDy=0;entryX=0.5;entryY=0;entryDx=0;entryDy=0;" edge="1" parent="WIyWlLk6GJQsqaUBKTNV-1" source="mF7ugIjlvZ4SNHsndyJy-17" target="mF7ugIjlvZ4SNHsndyJy-18">
          <mxGeometry relative="1" as="geometry" />
        </mxCell>
        <mxCell id="mF7ugIjlvZ4SNHsndyJy-17" value="Apartado 2" style="shape=parallelogram;perimeter=parallelogramPerimeter;whiteSpace=wrap;html=1;fixedSize=1;fillColor=#e1d5e7;strokeColor=#9673a6;" vertex="1" parent="WIyWlLk6GJQsqaUBKTNV-1">
          <mxGeometry x="152.5" y="430" width="135" height="40" as="geometry" />
        </mxCell>
        <mxCell id="mF7ugIjlvZ4SNHsndyJy-31" style="edgeStyle=orthogonalEdgeStyle;rounded=0;orthogonalLoop=1;jettySize=auto;html=1;exitX=0.5;exitY=1;exitDx=0;exitDy=0;entryX=0.5;entryY=0;entryDx=0;entryDy=0;" edge="1" parent="WIyWlLk6GJQsqaUBKTNV-1" source="mF7ugIjlvZ4SNHsndyJy-18" target="mF7ugIjlvZ4SNHsndyJy-19">
          <mxGeometry relative="1" as="geometry" />
        </mxCell>
        <mxCell id="mF7ugIjlvZ4SNHsndyJy-18" value="resultado_2.ordenar_lista_vacia()" style="rounded=1;whiteSpace=wrap;html=1;fontSize=12;glass=0;strokeWidth=1;shadow=0;fillColor=#fff2cc;strokeColor=#d6b656;" vertex="1" parent="WIyWlLk6GJQsqaUBKTNV-1">
          <mxGeometry x="115" y="500" width="210" height="40" as="geometry" />
        </mxCell>
        <mxCell id="mF7ugIjlvZ4SNHsndyJy-32" style="edgeStyle=orthogonalEdgeStyle;rounded=0;orthogonalLoop=1;jettySize=auto;html=1;exitX=0.5;exitY=1;exitDx=0;exitDy=0;" edge="1" parent="WIyWlLk6GJQsqaUBKTNV-1" source="mF7ugIjlvZ4SNHsndyJy-19">
          <mxGeometry relative="1" as="geometry">
            <mxPoint x="220" y="650" as="targetPoint" />
          </mxGeometry>
        </mxCell>
        <mxCell id="mF7ugIjlvZ4SNHsndyJy-19" value="Ejercicio 2:" style="shape=parallelogram;perimeter=parallelogramPerimeter;whiteSpace=wrap;html=1;fixedSize=1;fillColor=#e1d5e7;strokeColor=#9673a6;" vertex="1" parent="WIyWlLk6GJQsqaUBKTNV-1">
          <mxGeometry x="152.5" y="570" width="135" height="40" as="geometry" />
        </mxCell>
        <mxCell id="mF7ugIjlvZ4SNHsndyJy-33" style="edgeStyle=orthogonalEdgeStyle;rounded=0;orthogonalLoop=1;jettySize=auto;html=1;exitX=0.5;exitY=1;exitDx=0;exitDy=0;entryX=0.5;entryY=0;entryDx=0;entryDy=0;" edge="1" parent="WIyWlLk6GJQsqaUBKTNV-1" source="mF7ugIjlvZ4SNHsndyJy-20" target="mF7ugIjlvZ4SNHsndyJy-21">
          <mxGeometry relative="1" as="geometry" />
        </mxCell>
        <mxCell id="mF7ugIjlvZ4SNHsndyJy-20" value="resultado.ordenacion_burbuja()" style="rounded=1;whiteSpace=wrap;html=1;fontSize=12;glass=0;strokeWidth=1;shadow=0;fillColor=#fff2cc;strokeColor=#d6b656;" vertex="1" parent="WIyWlLk6GJQsqaUBKTNV-1">
          <mxGeometry x="125" y="640" width="190" height="40" as="geometry" />
        </mxCell>
        <mxCell id="mF7ugIjlvZ4SNHsndyJy-34" style="edgeStyle=orthogonalEdgeStyle;rounded=0;orthogonalLoop=1;jettySize=auto;html=1;exitX=0.5;exitY=1;exitDx=0;exitDy=0;" edge="1" parent="WIyWlLk6GJQsqaUBKTNV-1" source="mF7ugIjlvZ4SNHsndyJy-21" target="mF7ugIjlvZ4SNHsndyJy-22">
          <mxGeometry relative="1" as="geometry" />
        </mxCell>
        <mxCell id="mF7ugIjlvZ4SNHsndyJy-21" value="Ejercicio 3:" style="shape=parallelogram;perimeter=parallelogramPerimeter;whiteSpace=wrap;html=1;fixedSize=1;fillColor=#e1d5e7;strokeColor=#9673a6;" vertex="1" parent="WIyWlLk6GJQsqaUBKTNV-1">
          <mxGeometry x="152.5" y="710" width="135" height="40" as="geometry" />
        </mxCell>
        <mxCell id="mF7ugIjlvZ4SNHsndyJy-35" style="edgeStyle=orthogonalEdgeStyle;rounded=0;orthogonalLoop=1;jettySize=auto;html=1;exitX=0.5;exitY=1;exitDx=0;exitDy=0;entryX=0.5;entryY=0;entryDx=0;entryDy=0;" edge="1" parent="WIyWlLk6GJQsqaUBKTNV-1" source="mF7ugIjlvZ4SNHsndyJy-22" target="mF7ugIjlvZ4SNHsndyJy-24">
          <mxGeometry relative="1" as="geometry" />
        </mxCell>
        <mxCell id="mF7ugIjlvZ4SNHsndyJy-22" value="resulado.segmentos()" style="rounded=1;whiteSpace=wrap;html=1;fontSize=12;glass=0;strokeWidth=1;shadow=0;fillColor=#fff2cc;strokeColor=#d6b656;" vertex="1" parent="WIyWlLk6GJQsqaUBKTNV-1">
          <mxGeometry x="125" y="780" width="190" height="40" as="geometry" />
        </mxCell>
        <mxCell id="mF7ugIjlvZ4SNHsndyJy-37" style="edgeStyle=orthogonalEdgeStyle;rounded=0;orthogonalLoop=1;jettySize=auto;html=1;exitX=0.5;exitY=1;exitDx=0;exitDy=0;entryX=0.5;entryY=0;entryDx=0;entryDy=0;" edge="1" parent="WIyWlLk6GJQsqaUBKTNV-1" source="mF7ugIjlvZ4SNHsndyJy-24" target="mF7ugIjlvZ4SNHsndyJy-36">
          <mxGeometry relative="1" as="geometry" />
        </mxCell>
        <mxCell id="mF7ugIjlvZ4SNHsndyJy-24" value="resulado.explorar()" style="rounded=1;whiteSpace=wrap;html=1;fontSize=12;glass=0;strokeWidth=1;shadow=0;fillColor=#fff2cc;strokeColor=#d6b656;" vertex="1" parent="WIyWlLk6GJQsqaUBKTNV-1">
          <mxGeometry x="125" y="850" width="190" height="40" as="geometry" />
        </mxCell>
        <mxCell id="mF7ugIjlvZ4SNHsndyJy-36" value="FIN" style="rounded=1;whiteSpace=wrap;html=1;fontSize=12;glass=0;strokeWidth=1;shadow=0;fillColor=#f8cecc;strokeColor=#b85450;" vertex="1" parent="WIyWlLk6GJQsqaUBKTNV-1">
          <mxGeometry x="160" y="920" width="120" height="40" as="geometry" />
        </mxCell>
      </root>
    </mxGraphModel>
  </diagram>
</mxfile>
